<?xml version="1.0" encoding="UTF-8"?>
<svg xmlns="http://www.w3.org/2000/svg" xmlns:xlink="http://www.w3.org/1999/xlink" width="3000" height="2547" viewBox="0 0 3000 2547">
<path fill-rule="nonzero" fill="rgb(0%, 0%, 0%)" fill-opacity="1" d="M 1391.261719 2498.988281 C 1311.800781 2387.636719 1245.980469 2351.078125 1043.289062 2305.722656 C 941.855469 2283.023438 722.480469 2178.789062 598.441406 2094.355469 C 466.839844 2004.78125 312.761719 1847.730469 216.453125 1705.003906 C 169.558594 1635.511719 89.796875 1471.78125 62.875 1389.738281 C -18.011719 1143.25 -20.78125 837.871094 54.144531 426.878906 C 70.394531 337.761719 84.480469 252.53125 102.683594 133.199219 C 105.484375 114.859375 111.585938 98.578125 116.242188 97.03125 C 120.902344 95.46875 136.976562 110.910156 151.960938 131.320312 C 199.320312 195.839844 302.363281 269.640625 496.226562 377.910156 C 611.011719 442.011719 805.699219 571.230469 888.601562 638.351562 C 984.929688 716.328125 1102 839.390625 1162.050781 925.78125 C 1249.5 1051.601562 1298.71875 1165.039062 1326.980469 1305.949219 C 1346.011719 1400.851562 1347.429688 1584.746094 1330.460938 1758.015625 C 1317.089844 1894.605469 1315.230469 2055.035156 1326.300781 2118.996094 C 1330.421875 2142.859375 1337.148438 2181.890625 1341.25 2205.730469 C 1349.660156 2254.703125 1376.808594 2346.667969 1410.851562 2441.574219 C 1453.199219 2559.640625 1447.160156 2577.332031 1391.261719 2498.988281 Z M 1512.359375 2307.765625 C 1506.421875 2298.148438 1520.429688 1800.1875 1529.941406 1683.234375 C 1566.640625 1231.589844 1633.558594 983.109375 1776.808594 766.488281 C 1848.359375 658.308594 2008.441406 495.5 2122.320312 415.121094 C 2311.289062 281.730469 2530.429688 174.621094 2849.878906 59.539062 C 2902.078125 40.730469 2955.839844 18.640625 2969.320312 10.441406 C 2991.058594 -2.761719 2994.371094 -3.101562 2998.429688 7.480469 C 3000.949219 14.039062 3000.378906 25.359375 2997.171875 32.621094 C 2993.960938 39.878906 2988.960938 212.210938 2986.070312 415.558594 C 2981.019531 769.980469 2979.96875 789.921875 2960.820312 896.851562 C 2903.75 1215.519531 2791.03125 1494.890625 2639.191406 1693.964844 C 2384.199219 2028.269531 2103.898438 2199.917969 1665.808594 2290.03125 C 1569.339844 2309.871094 1517.378906 2315.878906 1512.359375 2307.765625 Z M 1512.359375 2307.765625 "/>
</svg>
